<svg width="189" height="240" viewBox="0 0 189 240" fill="none" xmlns="http://www.w3.org/2000/svg">
<rect y="26" width="189" height="189" rx="20" fill="#1B2025"/>
<path d="M89.48 176L62.28 138.56V176H34.92V57.6H62.28V123.04L89.32 86.72H123.08L85.96 131.52L123.4 176H89.48Z" fill="white"/>
<path d="M144.448 177.152C140.128 177.152 136.576 175.904 133.792 173.408C131.104 170.816 129.76 167.648 129.76 163.904C129.76 160.064 131.104 156.848 133.792 154.256C136.576 151.664 140.128 150.368 144.448 150.368C148.672 150.368 152.128 151.664 154.816 154.256C157.6 156.848 158.992 160.064 158.992 163.904C158.992 167.648 157.6 170.816 154.816 173.408C152.128 175.904 148.672 177.152 144.448 177.152Z" fill="#FFD42F"/>
</svg>
