<svg width="308" height="300" viewBox="0 0 308 300" fill="none" xmlns="http://www.w3.org/2000/svg">
<rect width="307.523" height="300" rx="20" fill="#1B2025"/>
<path d="M145.548 251L96.5884 183.608V251H47.3404V37.88H96.5884V155.672L145.26 90.296H206.028L139.212 170.936L206.604 251H145.548Z" fill="white"/>
<path d="M225.453 228.453C225.453 222.453 227.516 217.438 231.641 213.406C235.859 209.375 241.438 207.359 248.375 207.359C255.312 207.359 260.844 209.375 264.969 213.406C269.188 217.438 271.297 222.453 271.297 228.453C271.297 234.453 269.188 239.469 264.969 243.5C260.844 247.531 255.312 249.547 248.375 249.547C241.438 249.547 235.859 247.531 231.641 243.5C227.516 239.469 225.453 234.453 225.453 228.453Z" fill="#FFD42F"/>
</svg>
